<svg xmlns="http://www.w3.org/2000/svg" width="1024" height="1024" viewBox="0 0 1024 1024" version="1.1"><path d="M 778 264.562 C 743.012 268.311, 712.554 275.943, 682.402 288.516 C 659.495 298.067, 653.516 300.743, 639.830 307.563 C 622.125 316.386, 624.807 314.727, 581 343.973 C 531.776 376.835, 506.336 391.805, 469.383 409.652 C 428.481 429.406, 383.711 445.537, 351.647 452.072 C 329.121 456.663, 323.053 457.205, 285.500 457.982 C 251.780 458.679, 247.835 458.941, 241 460.928 C 225.747 465.364, 217.541 471.752, 220.607 476.803 C 222.905 480.586, 228.125 481.929, 244.610 482.975 C 275.715 484.950, 286.159 489.858, 304.795 511.263 C 327.184 536.978, 339.273 544.174, 360 544.121 C 381.297 544.067, 404.327 537.168, 435.938 521.370 C 492.999 492.855, 548.076 447.606, 618.968 371 C 626.348 363.025, 641.187 347.318, 651.943 336.096 L 671.500 315.692 672.006 428.596 L 672.513 541.500 672.756 428.176 L 673 314.853 678.632 309.676 C 700.196 289.855, 726.460 277.614, 763.500 270.121 C 771.750 268.452, 783.675 266.365, 790 265.483 C 796.325 264.601, 801.950 263.717, 802.500 263.519 C 804.838 262.675, 789.527 263.327, 778 264.562 M 352.466 341.500 C 352.466 371.200, 352.594 383.206, 352.749 368.179 C 352.905 353.153, 352.905 328.853, 352.749 314.179 C 352.593 299.506, 352.466 311.800, 352.466 341.500 M 659.659 308.510 C 637.939 317.530, 622.206 327.206, 591.755 350.271 C 554.338 378.613, 527.824 395.112, 486.410 415.827 C 423.061 447.515, 362.036 466.950, 303.500 474.081 C 293.600 475.287, 285.122 476.612, 284.660 477.027 C 284.198 477.441, 286.551 479.168, 289.888 480.864 C 298.159 485.067, 302.267 487.733, 315.309 497.363 C 329.307 507.698, 335.453 511.431, 344.420 515.042 L 351.500 517.893 352.082 512.196 L 352.664 506.500 352.832 512.189 L 353 517.877 357.632 518.572 C 360.180 518.954, 368.618 519.028, 376.382 518.736 C 387.713 518.309, 392.784 517.605, 402.069 515.166 C 423.939 509.423, 446.082 499.233, 472.593 482.711 C 513.130 457.449, 545.063 429.871, 612.512 361.877 C 660.778 313.221, 667.768 305.976, 666.387 306.042 C 665.899 306.066, 662.872 307.176, 659.659 308.510 M 352.422 421 C 352.422 432.275, 352.568 436.887, 352.746 431.250 C 352.924 425.613, 352.924 416.387, 352.746 410.750 C 352.568 405.113, 352.422 409.725, 352.422 421 M 448.750 573.750 C 483.537 573.896, 540.462 573.896, 575.250 573.750 C 610.037 573.604, 581.575 573.485, 512 573.485 C 442.425 573.485, 413.962 573.604, 448.750 573.750 M 507.983 656.562 L 510.966 657.124 511.260 682.312 L 511.554 707.500 511.527 682 L 511.500 656.500 508.250 656.250 C 505.077 656.006, 505.071 656.013, 507.983 656.562 M 259.858 657.743 L 292.216 658.028 291.809 661.513 C 291.575 663.511, 291.776 664.624, 292.279 664.121 C 292.762 663.638, 293.009 661.951, 292.828 660.372 L 292.500 657.500 260 657.479 L 227.500 657.457 259.858 657.743 M 306.455 727.500 C 306.455 748.950, 306.587 757.583, 306.749 746.684 C 306.911 735.785, 306.910 718.235, 306.748 707.684 C 306.587 697.133, 306.454 706.050, 306.455 727.500 M 481.441 738 C 481.441 753.675, 481.579 760.087, 481.748 752.250 C 481.917 744.413, 481.917 731.587, 481.748 723.750 C 481.579 715.913, 481.441 722.325, 481.441 738 M 345.426 745.500 C 345.427 757.600, 345.571 762.413, 345.747 756.195 C 345.923 749.977, 345.922 740.077, 345.746 734.195 C 345.569 728.313, 345.425 733.400, 345.426 745.500" stroke="none" fill="#2a816c" fill-rule="evenodd"/><path d="M 382 256.351 C 370.648 259.465, 360.056 268.110, 355.782 277.749 C 352.984 284.059, 352.985 284.029, 352.725 374.275 L 352.500 452.050 355.500 451.400 C 382.800 445.493, 425.307 430.258, 461.620 413.366 C 499.638 395.680, 529.875 378.104, 581 343.973 C 600.525 330.938, 618.448 319.058, 620.830 317.573 C 626.797 313.853, 652.608 301.032, 663.357 296.448 L 672.214 292.671 671.576 287.585 C 670.048 275.400, 659.984 262.560, 648.247 257.821 L 642.500 255.500 514.500 255.308 C 415.558 255.160, 385.478 255.396, 382 256.351 M 659.659 308.510 C 637.939 317.530, 622.206 327.206, 591.755 350.271 C 554.338 378.613, 527.824 395.112, 486.410 415.827 C 445.773 436.154, 407.414 450.858, 365 462.367 L 352.500 465.759 352.805 491.601 C 352.973 505.814, 353.349 517.681, 353.641 517.972 C 353.934 518.262, 362.347 518.464, 372.336 518.421 C 389.375 518.347, 391.217 518.149, 402.069 515.235 C 424.240 509.281, 446.236 499.137, 472.593 482.711 C 513.130 457.449, 545.063 429.871, 612.512 361.877 C 660.778 313.221, 667.768 305.976, 666.387 306.042 C 665.899 306.066, 662.872 307.176, 659.659 308.510 M 651.943 336.095 C 641.187 347.318, 626.348 363.025, 618.968 371 C 548.076 447.606, 492.999 492.855, 435.938 521.370 C 405.167 536.748, 381.865 543.866, 361.234 544.191 C 353.342 544.316, 352.996 544.416, 353.597 546.411 C 356.316 555.436, 365.321 565.386, 374.782 569.820 L 380.500 572.500 512.500 572.500 L 644.500 572.500 650.121 569.739 C 658.067 565.837, 664.096 560.155, 668.073 552.821 L 671.500 546.500 671.769 458 C 671.917 409.325, 671.917 357.393, 671.769 342.595 L 671.500 315.690 651.943 336.095 M 552.479 654.394 C 542.796 657.428, 539 663.144, 539 674.691 C 539 678.573, 538.719 683.156, 538.375 684.875 C 537.784 687.831, 537.501 688.001, 533.125 688.015 C 526.383 688.038, 525.848 688.662, 526.198 696.091 L 526.500 702.500 532.236 702.799 L 537.972 703.099 538.236 734.799 L 538.500 766.500 547.500 766.500 L 556.500 766.500 557 735 L 557.500 703.500 566 703 L 574.500 702.500 574.500 695.500 L 574.500 688.500 565.750 688.211 L 557 687.922 557 681.517 C 557 676.188, 557.405 674.640, 559.413 672.306 C 561.608 669.753, 562.449 669.494, 568.717 669.430 C 572.507 669.392, 576.146 669.028, 576.804 668.621 C 578.283 667.707, 578.401 657.618, 576.965 654.934 C 576.046 653.218, 574.835 653.008, 566.215 653.067 C 560.872 653.104, 554.691 653.701, 552.479 654.394 M 585.492 658.250 C 585.192 659.487, 585.071 684.350, 585.223 713.500 L 585.500 766.500 593.914 766.793 C 599.971 767.004, 602.559 766.724, 603.149 765.793 C 604.085 764.317, 604.321 659.999, 603.393 657.582 C 602.906 656.314, 601.126 656, 594.412 656 C 586.556 656, 586.004 656.139, 585.492 658.250 M 306.667 657.667 C 305.833 658.500, 305.792 665.294, 306.607 667.418 C 306.995 668.431, 308.435 669, 310.607 669 L 314 669 314 663 L 314 657 310.667 657 C 308.833 657, 307.033 657.300, 306.667 657.667 M 504 712.063 L 504 767.127 507.250 766.813 L 510.500 766.500 510.759 711.750 L 511.017 657 507.509 657 L 504 657 504 712.063 M 228.241 712.250 L 228.500 766.500 232 766.500 L 235.500 766.500 235.767 740.750 L 236.034 715 260.517 715 L 285 715 285 711.517 L 285 708.035 260.418 707.767 L 235.835 707.500 235.668 686.265 L 235.500 665.030 263.500 664.765 L 291.500 664.500 291.813 661.250 L 292.127 658 260.055 658 L 227.983 658 228.241 712.250 M 445.115 686.129 C 438.446 687.236, 430.525 691.445, 427.399 695.543 C 424.864 698.867, 422 706.071, 422 709.126 C 422 710.599, 422.745 711, 425.481 711 C 428.466 711, 429.047 710.608, 429.562 708.250 C 431.960 697.267, 439.016 691.979, 451.218 692.022 C 464.818 692.070, 472.700 699.589, 474.518 714.250 L 475.230 720 466.865 720.026 C 453.690 720.066, 439.782 721.736, 433.720 724.004 C 423.612 727.785, 418.401 736.046, 419.196 747.029 C 419.811 755.540, 423.825 761.579, 431.463 765.485 C 436.681 768.154, 438.343 768.498, 445.929 768.478 C 455.892 768.453, 462.845 765.845, 469.870 759.498 L 474 755.767 474 759.802 C 474 765.640, 474.786 767, 478.160 767 L 481.105 767 480.803 735.750 L 480.500 704.500 477.526 699.130 C 475.890 696.176, 473.159 692.697, 471.457 691.399 C 465.240 686.657, 454.670 684.542, 445.115 686.129 M 360.275 687.597 C 357.951 688.451, 353.834 691.141, 351.128 693.575 C 345.888 698.286, 344.713 698.910, 345.641 696.492 C 345.959 695.663, 345.920 693.387, 345.553 691.433 C 344.938 688.154, 344.642 687.905, 341.694 688.191 L 338.500 688.500 338.183 708.500 C 338.008 719.500, 338.170 737.163, 338.542 747.750 L 339.219 767 341.970 767 L 344.722 767 345.267 740.250 C 345.892 709.571, 346.528 706.420, 353.496 699.451 C 358.813 694.134, 365.945 691.611, 374.008 692.194 C 381.640 692.746, 386.931 696.189, 390.129 702.684 C 392.438 707.374, 392.508 708.277, 392.805 737.250 L 393.110 767 396.555 767 L 400 767 400 739.049 C 400 723.107, 399.544 708.971, 398.938 706.148 C 397.420 699.067, 393.018 692.681, 387.377 689.375 C 383.242 686.952, 381.382 686.539, 373.549 686.310 C 367.273 686.125, 363.205 686.520, 360.275 687.597 M 641.500 687.336 C 631.941 689.807, 626.340 693.999, 622.217 701.771 C 617.933 709.844, 616.623 717.796, 617.272 731.780 C 618.145 750.611, 622.633 759.233, 634.639 765.143 C 640.989 768.269, 642.017 768.467, 651.945 768.473 C 657.750 768.477, 664.371 767.916, 666.657 767.226 C 672.565 765.445, 679.978 760.175, 683.149 755.500 C 688.219 748.028, 689.506 741.995, 689.442 726 C 689.391 713.390, 689.089 710.752, 687.124 705.761 C 684.147 698.199, 677.718 691.798, 670.239 688.949 C 663.153 686.250, 648.816 685.446, 641.500 687.336 M 307 727.500 L 307 767 310.500 767 L 314 767 314 727.500 L 314 688 310.500 688 L 307 688 307 727.500 M 695.264 689.750 C 694.888 690.726, 696.898 700.342, 699.809 711.500 C 711.867 757.702, 713.968 765.368, 714.801 766.201 C 715.282 766.682, 720.137 766.947, 725.588 766.788 L 735.500 766.500 740.773 742.500 C 743.673 729.300, 746.282 717.434, 746.571 716.132 C 746.861 714.830, 747.291 713.958, 747.528 714.195 C 747.765 714.432, 750.211 725.397, 752.963 738.563 C 755.716 751.728, 758.209 763.513, 758.503 764.750 C 759.016 766.905, 759.478 767, 769.448 767 L 779.858 767 781.344 761.750 C 788.501 736.457, 800.088 690.672, 799.633 689.485 C 799.190 688.332, 797.151 688, 790.507 688 C 782.553 688, 781.890 688.158, 781.097 690.250 C 780.628 691.487, 777.901 704.200, 775.037 718.500 C 772.174 732.800, 769.654 744.677, 769.439 744.893 C 768.798 745.536, 768.346 743.500, 764.031 720.500 C 761.761 708.400, 759.238 696.138, 758.424 693.250 L 756.944 688 748.019 688 L 739.094 688 738.041 691.750 C 736.844 696.016, 730.994 723.112, 728.422 736.303 C 727.478 741.144, 726.382 744.744, 725.988 744.303 C 725.593 743.861, 724.733 740.575, 724.077 737 C 721.335 722.054, 714.689 691.371, 713.843 689.750 C 713.082 688.292, 711.510 688, 704.433 688 C 697.265 688, 695.832 688.274, 695.264 689.750 M 646.020 702.695 C 642.059 704.749, 638.488 709.583, 637.016 714.882 C 635.652 719.794, 635.736 735.066, 637.159 740.716 C 640.416 753.653, 656.362 758.185, 664.803 748.572 C 669.264 743.490, 670.443 738.878, 670.444 726.492 C 670.445 716.780, 670.154 714.903, 667.973 710.544 C 666.613 707.827, 664.281 704.719, 662.791 703.638 C 658.953 700.851, 650.490 700.376, 646.020 702.695 M 449 726.993 C 433.955 728.493, 426 734.721, 426 745 C 426 749.782, 427.698 753.437, 431.661 757.186 C 435.614 760.927, 439.421 762.160, 447.206 762.224 C 456.212 762.297, 463.523 758.820, 468.281 752.200 C 472.905 745.767, 473.900 742.721, 474.222 734 L 474.500 726.500 465.500 726.373 C 460.550 726.303, 453.125 726.582, 449 726.993" stroke="none" fill="#114658" fill-rule="evenodd"/></svg>